<svg xmlns="http://www.w3.org/2000/svg" viewBox="0 0 100 100" role="img" aria-label="eBuilt">
<!-- Traced from the artwork the client supplied. Not a redraw: the
     outline and the e are the shapes in their own file. -->
  <path fill="currentColor" d="M43.3 96.6C43.3 96.5 42.4 96.4 41.4 96.3C39.1 96.1 37.7 95.9 34.9 95.2C31.4 94.4 23.1 90.8 20.8 89.1C17.0 86.3 14.6 84.4 14.0 83.6C13.6 83.1 12.5 81.9 11.6 80.9C8.5 77.8 5.9 73.6 3.7 68.5C3.4 67.8 3.0 66.7 2.7 66.2C2.5 65.6 2.1 64.4 1.9 63.4C1.6 62.4 1.3 61.2 1.2 60.9C0.6 59.0 0.1 54.8 0.1 50.8C0.1 47.0 0.3 45.1 1.1 40.8C1.3 39.4 2.4 35.9 3.1 34.1C3.3 33.5 3.7 32.7 3.8 32.3C7.8 21.6 20.0 10.1 31.6 6.1C38.0 4.0 41.3 3.4 48.3 3.4C54.3 3.4 58.0 3.9 61.6 5.2C62.1 5.3 62.9 5.6 63.5 5.7C73.0 8.2 83.7 16.7 89.3 26.1C90.1 27.4 90.7 28.5 90.7 28.6C90.7 28.8 91.0 29.3 91.3 29.8C91.6 30.3 91.9 30.8 91.9 31.0C91.9 31.1 92.1 31.7 92.4 32.2C92.9 33.3 93.8 35.9 93.8 36.5C93.8 36.7 93.9 37.3 94.1 37.8C94.9 40.0 95.6 45.4 95.6 49.0C95.6 51.3 95.3 55.0 95.1 55.9C95.0 56.1 94.9 56.8 94.8 57.5C93.9 61.7 92.8 64.9 91.1 68.3C88.7 73.0 87.4 75.2 86.0 76.7C83.2 79.7 82.8 81.5 82.6 90.3C82.5 96.0 82.5 96.0 81.5 96.4C80.8 96.7 43.6 96.9 43.3 96.6Z M52.2 88.4C61.2 86.3 67.0 83.6 72.4 79.1C73.0 78.5 74.1 77.6 74.8 77.0C75.5 76.5 76.5 75.6 76.9 75.1C77.3 74.5 78.0 73.7 78.5 73.2C79.0 72.6 80.2 71.0 81.1 69.6C88.0 59.4 89.3 48.7 85.3 36.5C83.4 30.9 78.5 23.8 74.0 20.4C68.3 16.0 62.3 13.2 56.3 12.0C55.7 11.9 54.8 11.7 54.4 11.6C53.4 11.4 42.5 11.5 41.0 11.8C28.6 14.0 16.2 23.4 11.9 33.7C11.8 34.2 11.4 35.1 11.1 35.6C10.5 37.0 9.8 39.0 9.3 41.1C9.0 42.6 8.9 43.2 8.4 45.6C8.3 46.1 8.3 48.2 8.3 50.4C8.3 54.0 8.4 55.8 8.9 58.1C9.0 58.6 9.2 59.4 9.3 60.0C9.4 60.9 10.3 63.6 11.2 65.8C11.4 66.4 11.9 67.3 12.2 67.9C12.5 68.5 13.1 69.5 13.4 70.1C14.7 72.4 18.7 77.4 20.6 79.0C25.2 82.9 30.5 85.8 35.6 87.2C38.6 88.1 39.0 88.2 39.6 88.2C39.9 88.2 40.4 88.3 40.6 88.4C41.1 88.6 51.2 88.6 52.2 88.4Z"/>
  <path fill="#003FD6" d="M30.7 76.0C30.5 75.9 30.0 75.8 29.7 75.8C29.0 75.8 26.5 75.2 25.0 74.6C20.5 72.9 15.6 67.2 14.0 61.6C13.7 60.8 13.4 59.7 13.2 59.2C11.9 54.9 11.9 46.6 13.3 42.2C13.5 41.7 13.8 40.6 14.0 39.9C15.0 36.5 18.2 30.5 19.7 29.3C19.9 29.1 20.5 28.4 21.1 27.7C25.3 22.3 33.3 17.8 41.8 16.0C45.6 15.2 53.6 15.4 56.8 16.5C57.2 16.6 58.0 16.8 58.7 17.0C62.8 18.2 67.6 20.7 70.6 23.4C71.3 24.0 72.4 25.0 73.1 25.6C75.5 27.7 79.4 33.5 80.7 37.0C80.8 37.4 81.1 38.1 81.3 38.7C83.0 43.1 82.9 44.7 80.6 45.7C78.8 46.5 70.2 50.5 63.9 53.5C61.5 54.7 58.7 56.0 57.7 56.4C56.6 56.9 54.0 58.2 51.8 59.2C41.6 64.0 43.0 64.2 40.1 58.0C39.2 56.1 38.9 55.3 38.0 52.6C37.5 51.1 38.3 48.8 39.3 48.8C40.1 48.8 59.6 38.8 59.9 38.2C60.6 36.8 56.0 33.9 51.0 32.6C48.9 32.0 43.6 32.5 41.2 33.4C35.7 35.4 31.6 39.2 29.5 44.0C29.2 44.6 28.9 45.4 28.7 45.7C27.0 49.6 27.5 57.6 29.8 62.0C32.9 68.3 38.0 71.7 44.0 71.5C46.9 71.4 46.9 71.9 44.0 73.3C42.0 74.4 40.6 74.8 35.7 76.0C34.7 76.2 31.3 76.2 30.7 76.0Z"/>
</svg>
